<?xml version="1.0" encoding="utf-8"?>
<!-- Generator: Adobe Illustrator 21.1.0, SVG Export Plug-In . SVG Version: 6.00 Build 0)  -->
<svg version="1.1" id="Layer_1" xmlns="http://www.w3.org/2000/svg" xmlns:xlink="http://www.w3.org/1999/xlink" x="0px" y="0px"
	 viewBox="0 0 12 15.3" style="enable-background:new 0 0 12 15.3;" xml:space="preserve">
<title>boost</title>
<g id="Layer_2">
	<g id="Layer_1-2">
		<path d="M0.3,7.3C0.2,7.3,0,7.4,0,7.5c0,0.1,0.1,0.3,0.2,0.3C1.1,8,2.1,8.1,3,8.1c4,0,6.1-2.3,7.6-4.8l0.9,0.5
			c0.1,0.1,0.3,0.2,0.4,0.1C12,4,12.1,3.8,12,3.6l-0.6-3.4c0-0.1-0.1-0.2-0.1-0.2C11.2,0,11.1,0,11,0L8,1.3c-0.1,0-0.2,0.1-0.2,0.3
			c0,0.1,0.1,0.2,0.2,0.3l0.9,0.5C6.4,7.6,0.6,7.2,0.3,7.3 M9.5,2.2c0.1-0.1,0-0.3-0.1-0.4L8.8,1.6l2.1-0.9l0.4,2.5l-0.6-0.4
			c-0.1,0-0.1,0-0.2,0c-0.1,0-0.1,0.1-0.2,0.1C8.8,5.4,6.9,7.7,2.9,7.6C5.8,7.1,8.3,5,9.5,2.2"/>
		<path d="M1.2,10.8c-0.6,0-1,0.6-1,1.2c0,0,0,0,0,0v2.1c-0.1,0.6,0.4,1.1,1,1.2c0,0,0,0,0,0h1.3c0.6,0,1-0.6,1-1.2c0,0,0,0,0,0V12
			c0.1-0.6-0.4-1.1-1-1.2c0,0,0,0,0,0L1.2,10.8z M2.9,12v2.1c0,0.3-0.2,0.6-0.4,0.6H1.2c-0.2,0-0.4-0.3-0.4-0.6V12
			c0-0.3,0.2-0.6,0.4-0.6h1.3C2.7,11.4,2.9,11.7,2.9,12"/>
		<path d="M5.2,8.9c-0.6,0-1,0.6-1,1.2c0,0,0,0,0,0v4.1c-0.1,0.6,0.4,1.1,1,1.2c0,0,0,0,0,0h1.3c0.6,0,1-0.6,1-1.2c0,0,0,0,0,0v-4.1
			c0.1-0.6-0.4-1.1-1-1.2c0,0,0,0,0,0L5.2,8.9z M6.9,10.1v4.1c0,0.3-0.2,0.6-0.4,0.6H5.2c-0.2,0-0.4-0.3-0.4-0.6v-4.1
			c0-0.3,0.2-0.6,0.4-0.6h1.3C6.7,9.4,6.9,9.7,6.9,10.1"/>
		<path d="M10.9,6.5H9.5c-0.6,0-1,0.6-1,1.2c0,0,0,0,0,0v6.4c-0.1,0.6,0.4,1.1,1,1.2c0,0,0,0,0,0h1.3c0.6,0,1-0.6,1-1.2c0,0,0,0,0,0
			V7.7C11.9,7.1,11.5,6.6,10.9,6.5C10.9,6.5,10.9,6.5,10.9,6.5 M11.3,14.1c0,0.3-0.2,0.6-0.4,0.6H9.5c-0.2,0-0.4-0.3-0.4-0.6V7.7
			C9.1,7.3,9.3,7,9.5,7h1.3c0.2,0,0.4,0.3,0.4,0.6V14.1z"/>
	</g>
</g>
</svg>
