<?xml version="1.0" encoding="utf-8"?>
<!-- Generator: Adobe Illustrator 21.1.0, SVG Export Plug-In . SVG Version: 6.00 Build 0)  -->
<svg version="1.1" id="Layer_1" xmlns="http://www.w3.org/2000/svg" xmlns:xlink="http://www.w3.org/1999/xlink" x="0px" y="0px"
	 viewBox="0 0 10.2 9.7" style="enable-background:new 0 0 10.2 9.7;" xml:space="preserve">
<title>coupons</title>
<g id="Layer_2">
	<g id="Layer_1-2">
		<path d="M0,8c0,0.1,0.1,0.1,0.1,0.1l1.3,0.1v1.2c0,0.1,0,0.1,0.1,0.1h0.1c0,0,0.1,0,0.1,0l2.5-2.2l0.1,0.3c0,0.1,0.2,0.2,0.3,0.3
			c0.1,0,0.2-0.1,0.3-0.2l0.4-0.5c0,0,0.1-0.1,0.2-0.1c0,0,0.1,0,0.1,0l0.5,0.5c0.1,0.1,0.2,0.1,0.3,0.1c0.1,0,0.1,0,0.2-0.1l1.8,2
			c0,0,0.1,0,0.1,0.1l0,0c0.1,0,0.1-0.1,0.1-0.1l0.1-1.2l1.3-0.1c0.1,0,0.1,0,0.1-0.1c0,0,0-0.1,0-0.2L8,5.6l0,0
			c0,0,0.1-0.1,0.1-0.1l0.7-0.2c0.1,0,0.2-0.1,0.3-0.2c0-0.1,0-0.3-0.1-0.4L8.5,4.3c0,0-0.1-0.1-0.1-0.1c0,0,0-0.1,0-0.1L9,3.5
			c0.1-0.1,0.2-0.2,0.1-0.3C9.1,3.1,9,3,8.9,2.9L8.2,2.7c0,0-0.1-0.1-0.1-0.1c0,0,0-0.1,0-0.2l0.3-0.6c0.1-0.1,0.1-0.2,0-0.3
			C8.3,1.4,8.1,1.3,8,1.4L7.3,1.5c-0.1,0-0.2-0.1-0.2-0.2c0,0,0,0,0,0L7,0.6c0-0.2-0.1-0.3-0.3-0.3c-0.1,0-0.2,0-0.2,0.1L5.9,0.8
			c-0.1,0.1-0.2,0.1-0.3,0c0,0,0,0,0,0L5.3,0.2C5.2,0.1,5.1,0,5,0C4.9,0,4.7,0.1,4.7,0.2L4.4,0.8c0,0.1-0.2,0.1-0.3,0.1c0,0,0,0,0,0
			L3.5,0.6c-0.1-0.1-0.3-0.1-0.4,0C3,0.7,3,0.8,3,0.9v0.7c0,0,0,0.1,0,0.1c0,0-0.1,0.1-0.1,0.1H2.2C2,1.8,1.9,1.9,1.8,2
			c-0.1,0.1-0.1,0.2,0,0.4L2.2,3c0,0,0,0.1,0,0.2c0,0-0.1,0.1-0.1,0.1L1.5,3.5C1.3,3.6,1.2,3.8,1.3,4c0,0.1,0.1,0.1,0.2,0.2L2,4.5
			c0,0,0.1,0.1,0.1,0.1c0,0,0,0.1,0,0.2L1.7,5.3C1.6,5.5,1.7,5.7,1.8,5.8c0.1,0,0.1,0.1,0.2,0.1h0.3L0,7.8C0,7.9,0,8,0,8 M8,6.8
			L8,6.8L8,6.8c0.1-0.2,0.1-0.3,0.1-0.4L8,6.2L9.8,8L8.6,8.1c-0.1,0-0.1,0.1-0.1,0.1l-0.1,1L6.7,7.4l0.1-0.6c0,0,0,0,0-0.1
			c0,0,0.1,0,0.1,0l0.7,0.2C7.8,6.9,7.9,6.9,8,6.8 M2,5.5L2,5.5L2,5.5C1.9,5.5,1.9,5.5,2,5.5l0.3-0.6c0,0,0-0.1,0-0.1
			c0-0.1,0-0.2,0-0.3c0-0.1-0.1-0.2-0.2-0.3L1.5,3.9l0,0l0,0c0,0,0,0,0.1,0l0.3-0.2l0.3-0.2c0.1-0.1,0.2-0.2,0.2-0.3
			c0-0.1,0-0.2,0-0.4l0,0L2.1,2.2c0,0,0,0,0-0.1h0.8c0.1,0,0.2,0,0.3-0.1c0,0,0.1-0.1,0.1-0.2l0,0c0-0.1,0-0.1,0-0.2V1
			c0,0,0-0.1,0-0.1h0.1l0.5,0.3l0.2,0l0,0c0.1,0,0.1,0,0.2,0c0.1,0,0.2,0,0.3-0.1c0,0,0.1,0,0.1-0.1L5,0.4l0,0l0,0h0l0,0l0.3,0.4
			l0.1,0.2c0,0,0.1,0.1,0.1,0.1c0.1,0.1,0.2,0.1,0.3,0.1h0.1C6,1.1,6.1,1,6.1,1l0.2-0.1l0.3-0.3h0.1l0,0c0,0,0,0,0,0.1l0.1,0.7
			c0,0.1,0.1,0.2,0.1,0.3l0.1,0c0.1,0.1,0.2,0.1,0.4,0.1L8,1.7h0.1c0,0,0,0,0,0.1L7.8,2.4l0,0l0,0c0,0.1,0,0.2,0,0.3v0.1v0.1
			C7.9,2.9,8,3,8.2,3l0.5,0.2l0.2,0h0.1l0,0l0,0l0,0L8.5,3.5L8.4,3.7c-0.2,0.2-0.2,0.5,0,0.7c0,0,0,0,0,0l0.5,0.5c0,0,0,0.1,0,0.1
			l0,0H8.7L8.1,5.2c-0.1,0-0.2,0.1-0.3,0.2v0.1l0,0c0,0,0,0.1,0,0.1C7.7,5.6,7.7,5.7,7.7,5.8l0.2,0.7L7.2,6.3H7H6.9l0,0l0,0l0,0l0,0
			L6.7,6.5C6.6,6.6,6.5,6.7,6.5,6.8L6.4,7.4c0,0,0,0.1,0,0.1l0,0l0,0L5.8,7c0,0-0.1-0.1-0.1-0.1c-0.1,0-0.1,0-0.2,0
			c-0.1,0-0.2,0-0.2,0.1L5.2,7H5.1L4.7,7.5l0,0l0,0c0,0,0,0,0-0.1L4.5,7c0,0,0-0.1,0-0.2l0,0c0-0.1-0.1-0.2-0.3-0.3H4.1L4,6.6H3.8
			H3.7l0,0L3.1,6.8l0,0l0.1-0.7c0-0.3-0.1-0.5-0.4-0.5h0H2.7H2.5L2,5.5z M2.6,5.9h0.2l0,0c0,0,0,0.1,0,0.1L2.7,6.8
			c0,0.1,0,0.2,0.1,0.3c0,0.1,0.1,0.1,0.2,0.1c0.1,0,0.2,0,0.3,0l0.6-0.3H4C4,6.9,4.1,7,4.1,7l0,0L1.8,9.1v-1C1.8,8,1.7,8,1.6,8
			L0.5,7.8L2.6,5.9z"/>
	</g>
</g>
</svg>
