<?xml version="1.0" encoding="utf-8"?>
<!-- Generator: Adobe Illustrator 21.1.0, SVG Export Plug-In . SVG Version: 6.00 Build 0)  -->
<svg version="1.1" id="Layer_1" xmlns="http://www.w3.org/2000/svg" xmlns:xlink="http://www.w3.org/1999/xlink" x="0px" y="0px"
	 viewBox="0 0 13 8.7" style="enable-background:new 0 0 13 8.7;" xml:space="preserve">
<title>details</title>
<g id="Layer_2">
	<g id="Layer_1-2">
		<path d="M6.6,3h1.7c0.1,0,0.2-0.1,0.2-0.2c0,0,0,0,0,0V0.2C8.4,0.1,8.4,0,8.3,0c0,0,0,0,0,0H4.7C4.6,0,4.5,0.1,4.5,0.2
			c0,0,0,0,0,0v2.7C4.6,3,4.6,3,4.7,3H6.6z M4.9,0.3h3.2v2.4H4.9V0.3z"/>
		<path d="M3.9,8.5V5.8c0-0.1-0.1-0.2-0.2-0.2c0,0,0,0,0,0H0.2C0.1,5.7,0,5.7,0,5.8c0,0,0,0,0,0v2.7c0,0.1,0.1,0.2,0.2,0.2
			c0,0,0,0,0,0h3.6C3.8,8.7,3.9,8.6,3.9,8.5L3.9,8.5 M3.6,8.4H0.3V6h3.2L3.6,8.4z"/>
		<path d="M4.7,5.7c-0.1,0-0.2,0.1-0.2,0.2l0,0v2.7c0,0.1,0.1,0.2,0.2,0.2l0,0h3.6c0.1,0,0.2-0.1,0.2-0.2l0,0V5.8
			c0-0.1-0.1-0.2-0.2-0.2l0,0L4.7,5.7z M8.1,8.4H4.9V6h3.2V8.4z"/>
		<path d="M9.3,5.7c-0.1,0-0.2,0.1-0.2,0.2l0,0v2.7c0,0.1,0.1,0.2,0.2,0.2l0,0h3.6c0.1,0,0.2-0.1,0.2-0.2l0,0V5.8
			c0-0.1-0.1-0.2-0.2-0.2l0,0L9.3,5.7z M12.7,8.4H9.4V6h3.2L12.7,8.4z"/>
		<polygon points="2,5.4 2.3,5.4 2.3,4.5 6.4,4.5 6.4,5.4 6.6,5.4 6.6,4.5 10.7,4.5 10.7,5.4 10.9,5.4 10.9,4.3 6.6,4.3 6.6,3 
			6.6,3 6.4,3 6.4,3 6.4,4.3 2,4.3 		"/>
	</g>
</g>
</svg>
