<?xml version="1.0" encoding="utf-8"?>
<!-- Generator: Adobe Illustrator 21.1.0, SVG Export Plug-In . SVG Version: 6.00 Build 0)  -->
<svg version="1.1" id="Layer_1" xmlns="http://www.w3.org/2000/svg" xmlns:xlink="http://www.w3.org/1999/xlink" x="0px" y="0px"
	 viewBox="0 0 11 12" style="enable-background:new 0 0 11 12;" xml:space="preserve">
<title>events</title>
<g id="Layer_2">
	<g id="Layer_1-2">
		<path d="M9.8,1.8H9.4H9.4V0.7C9.4,0.3,9,0,8.7,0S7.9,0.3,7.9,0.7v1.2H3V0.7C3,0.3,2.7,0,2.3,0S1.6,0.3,1.6,0.7v1.2H1.2
			C0.5,1.9,0,2.4,0,3.1v7.7C0,11.4,0.5,12,1.2,12c0,0,0,0,0,0h8.6c0.7,0,1.2-0.5,1.2-1.2c0,0,0,0,0,0V3.1C11,2.4,10.5,1.8,9.8,1.8
			 M8.3,0.7c0-0.2,0.1-0.3,0.3-0.3S9,0.5,9,0.7v2.1C9,3,8.9,3.1,8.7,3.1C8.5,3.1,8.4,3,8.4,2.8L8.3,0.7z M2,0.7
			c0-0.2,0.1-0.3,0.3-0.3c0.2,0,0.3,0.1,0.3,0.3c0,0,0,0,0,0v2.1c0,0.2-0.1,0.3-0.3,0.3C2.1,3.1,2,3,2,2.8L2,0.7z M10.6,10.8
			c0,0.4-0.4,0.8-0.8,0.8H1.2c-0.4,0-0.8-0.3-0.8-0.8V3.1c0-0.4,0.3-0.8,0.8-0.8c0,0,0,0,0,0h0.1v0.4c0,0.6,0.4,1,1,1s1-0.4,1-1
			c0,0,0,0,0,0V2.3h4.3v0.4c0,0.6,0.4,1,1,1s1-0.4,1-1V2.3h0.1c0.4,0,0.8,0.4,0.8,0.8L10.6,10.8z"/>
		<path d="M9.9,4.9H1.1C1,4.9,0.9,5,0.9,5.1c0,0,0,0,0,0v5.2c0,0.4,0.3,0.7,0.7,0.7h7.8c0.4,0,0.7-0.3,0.7-0.7V5.1
			C10.1,5,10,4.9,9.9,4.9 M9.7,10.4c0,0.2-0.1,0.3-0.3,0.3h0H1.6c-0.2,0-0.3-0.1-0.3-0.3l0,0v-5h8.4L9.7,10.4z"/>
		<polygon points="7.3,6.5 6.8,6.1 5.5,7.4 4.2,6.1 3.7,6.5 5.1,7.9 3.7,9.3 4.2,9.7 5.5,8.3 6.8,9.7 7.3,9.3 5.9,7.9 		"/>
	</g>
</g>
</svg>
