<?xml version="1.0" encoding="utf-8"?>
<!-- Generator: Adobe Illustrator 21.1.0, SVG Export Plug-In . SVG Version: 6.00 Build 0)  -->
<svg version="1.1" id="Layer_1" xmlns="http://www.w3.org/2000/svg" xmlns:xlink="http://www.w3.org/1999/xlink" x="0px" y="0px"
	 viewBox="0 0 11.5 10.3" style="enable-background:new 0 0 11.5 10.3;" xml:space="preserve">
<title>history</title>
<g id="Layer_2">
	<g id="Layer_1-2">
		<polygon points="5.5,2.8 5.5,6.7 7.7,7.5 8,6.5 6.5,6 6.5,2.8 		"/>
		<path d="M6.3,0C3.5,0,1.2,2.3,1.2,5.2c0,0.3,0,0.6,0.1,0.8L0,6.5l2.4,0.9l0.8-2.2l-1,0.4c0-0.2,0-0.3,0-0.5C2.2,2.9,4.1,1,6.4,1
			s4.2,1.9,4.2,4.2c0,2.3-1.9,4.2-4.2,4.2c0,0-0.1,0-0.1,0C6,9.3,5.6,9.3,5.3,9.2v1c0.4,0.1,0.7,0.1,1.1,0.1
			c2.8,0.2,5.3-1.9,5.6-4.7S10.1,0.2,7.2,0C6.9,0,6.6,0,6.3,0"/>
	</g>
</g>
</svg>
