<svg xmlns="http://www.w3.org/2000/svg" viewBox="0 0 10.48 9.98"><defs><style>.cls-1{fill:#231f20;}</style></defs><title>notif_1</title><g id="Layer_2" data-name="Layer 2"><g id="Layer_1-2" data-name="Layer 1"><path class="cls-1" d="M2.77.77A4,4,0,0,0,1,4H0A5,5,0,0,1,2.06.07ZM8.48,4.24V7l1,1v.49H1V8L2,7V4.24a3.17,3.17,0,0,1,.7-2A3.15,3.15,0,0,1,4.48,1.08V.75A.72.72,0,0,1,4.7.22a.74.74,0,0,1,1.05,0A.72.72,0,0,1,6,.75v.33A3.2,3.2,0,0,1,7.77,2.23,3.13,3.13,0,0,1,8.48,4.24ZM6.23,9a.92.92,0,0,1-.29.71,1,1,0,0,1-.71.27,1,1,0,0,1-1-1ZM9.47,4A4,4,0,0,0,7.69.77l.73-.7A5,5,0,0,1,10.48,4Z"/></g></g></svg>