<?xml version="1.0" encoding="utf-8"?>
<!-- Generator: Adobe Illustrator 21.1.0, SVG Export Plug-In . SVG Version: 6.00 Build 0)  -->
<svg version="1.1" id="Layer_1" xmlns="http://www.w3.org/2000/svg" xmlns:xlink="http://www.w3.org/1999/xlink" x="0px" y="0px"
	 viewBox="0 0 10 10.3" style="enable-background:new 0 0 10 10.3;" xml:space="preserve">
<title>shop</title>
<g id="Layer_2">
	<g id="Layer_1-2">
		<path d="M3.7,8.6c0.5,0,0.8,0.4,0.8,0.8s-0.4,0.8-0.8,0.8S2.9,9.9,2.9,9.5l0,0C2.9,9,3.3,8.6,3.7,8.6"/>
		<path d="M7.4,8.6c0.5,0,0.8,0.4,0.8,0.8s-0.4,0.8-0.8,0.8S6.5,9.9,6.5,9.5l0,0C6.5,9,6.9,8.6,7.4,8.6"/>
		<path d="M9.5,4.1H4.3C4.2,4.1,4,4.3,4,4.5c0,0.2,0.1,0.4,0.3,0.4H9L8.7,5.8H4.2C4,5.8,3.9,6,3.9,6.2c0,0.2,0.1,0.3,0.3,0.4h4.3
			L8.2,7.4H3.5L3.2,4.9L3.1,4.1C3.1,4.1,3,3.3,3,3S2.2,2.3,0.4,1.5C0,1.3-0.3,2,0.4,2.5l1.3,0.6c0,0,0.3,0.2,0.3,0.4
			s0.6,4.3,0.6,4.3s0,0.6,0.5,0.6h5.1c0.3,0,0.5-0.2,0.5-0.4l1-3C9.9,5,10.2,4.2,9.5,4.1"/>
		<polygon points="7,2.4 7,0 6.1,0 6.1,2.4 5.3,2.4 6.5,3.9 7.8,2.4 		"/>
	</g>
</g>
</svg>
