<?xml version="1.0" encoding="utf-8"?>
<!-- Generator: Adobe Illustrator 21.1.0, SVG Export Plug-In . SVG Version: 6.00 Build 0)  -->
<svg version="1.1" id="Layer_1" xmlns="http://www.w3.org/2000/svg" xmlns:xlink="http://www.w3.org/1999/xlink" x="0px" y="0px"
	 viewBox="0 0 13 13" style="enable-background:new 0 0 13 13;" xml:space="preserve">
<title>shop_1</title>
<g id="Layer_2">
	<g id="Layer_1-2">
		<path d="M11.1,0.1c0,0,0.1,0,0.1,0.1L12.6,2l0,0h-1.8c-0.1,0-0.2,0-0.2-0.1c-0.3-0.6-0.5-1.2-0.8-1.8V0L11.1,0.1 M10.3,3.7
			c-0.1,0.6-0.6,1-1.2,0.9c-0.5-0.1-0.9-0.5-0.9-1c0-0.3,0-0.7,0-1h2.1c0,0,0,0.1,0,0.1C10.3,3.1,10.3,3.4,10.3,3.7 M9.1,0
			C9.2,0,9.2,0,9.1,0l0.9,2l0,0h-2L7.8,0H9.1 M5.8,0h1.4l0.3,2h-2C5.6,1.3,5.7,0.7,5.8,0 M5.5,2.7c0,0,0-0.1,0-0.1h2.1
			c0,0.4,0,0.8-0.1,1.2C7.4,4.3,6.9,4.7,6.4,4.6c-0.5,0-1-0.4-1-0.9C5.4,3.3,5.4,3,5.5,2.7 M3.9,0h1.3L4.9,2h-2V1.9l0.8-1.8
			C3.7,0.1,3.8,0,3.9,0 M4.8,3.8C4.7,4.3,4.2,4.7,3.7,4.6c-0.6,0-1-0.4-1-1c0-0.3,0-0.7,0-1h2.1C4.8,3,4.8,3.4,4.8,3.8 M1.8,0.1
			C1.8,0,1.8,0,1.9,0h1.2c0,0,0,0.1,0,0.1L2.3,1.9C2.2,2,2.2,2,2.1,2H0.3L1.8,0.1 M0,3.6c0-0.3,0-0.7,0-1h2.1c0,0.4,0,0.7,0,1.1
			C2,4.3,1.6,4.7,1,4.6c0,0,0,0,0,0C0.5,4.6,0,4.2,0,3.6 M5.2,13h-3V6.9h3V13z M12.4,13H5.8v-0.2c0-2.1,0-4.1,0-6.2
			c0-0.3-0.1-0.4-0.4-0.4H2c-0.3,0-0.4,0.1-0.4,0.4V13h-1V5.1C1.3,5.3,2,5.1,2.4,4.5C3,5.3,4,5.4,4.8,4.9C4.9,4.8,5,4.7,5.1,4.5
			C5.4,5,5.9,5.2,6.5,5.2c0.5,0,1-0.2,1.4-0.7c0.6,0.8,1.6,0.9,2.4,0.4c0.1-0.1,0.3-0.2,0.4-0.4c0.4,0.6,1.1,0.8,1.8,0.6V13z
			 M13,3.8c-0.1,0.5-0.6,0.9-1.1,0.9c0,0,0,0,0,0c-0.6,0-1-0.4-1-1c0-0.3,0-0.7,0-1H13c0,0,0,0.1,0,0.1C13,3.1,13,3.4,13,3.8"/>
	</g>
</g>
</svg>
