<?xml version="1.0" encoding="utf-8"?>
<!-- Generator: Adobe Illustrator 21.1.0, SVG Export Plug-In . SVG Version: 6.00 Build 0)  -->
<svg version="1.1" id="Layer_1" xmlns="http://www.w3.org/2000/svg" xmlns:xlink="http://www.w3.org/1999/xlink" x="0px" y="0px"
	 viewBox="0 0 13 11.3" style="enable-background:new 0 0 13 11.3;" xml:space="preserve">
<title>statistics</title>
<g id="Layer_2">
	<g id="Layer_1-2">
		<path d="M4.6,9.9c0.1,0,0.2-0.1,0.2-0.2c0,0,0,0,0,0V5.1c0-0.1-0.1-0.2-0.2-0.2c-0.1,0-0.1,0-0.2,0.1L1.8,7C1.8,7,1.7,7.1,1.7,7.2
			v2.5c0,0.1,0.1,0.2,0.2,0.2c0,0,0,0,0,0H4.6z M2.2,7.3l2.2-1.8v3.9H2.2V7.3z"/>
		<path d="M8.4,9.9c0.1,0,0.2-0.1,0.2-0.2c0,0,0,0,0,0V5.8c0-0.1,0-0.1-0.1-0.2l-1.9-2c-0.1-0.1-0.2-0.1-0.3,0L5.7,4
			C5.6,4,5.5,4.1,5.5,4.2v5.5c0,0.1,0.1,0.2,0.2,0.2L8.4,9.9z M6,4.3L6.4,4l1.8,1.9v3.6H6V4.3z"/>
		<path d="M11.3,9.9c0.1,0,0.2-0.1,0.2-0.2V4.2c0-0.1,0-0.1-0.1-0.2c-0.1,0-0.1,0-0.2,0L9.4,5.8c0,0,0,0.1,0,0.1v3.8
			c0,0.1,0.1,0.2,0.1,0.2H11.3z M9.7,6l1.4-1.4v5H9.7V6z"/>
		<path d="M12.6,1.6L8.9,4.3L6.7,2C6.6,1.9,6.5,1.9,6.4,2L1.6,5.3C1.3,5.5,1.6,6,1.9,5.8l4.6-3.2l2.2,2.3c0.1,0.1,0.2,0.1,0.3,0
			L12.9,2C13.2,1.8,12.9,1.3,12.6,1.6"/>
		<path d="M11.8,10.7H0.6V0.3C0.6,0.1,0.5,0,0.3,0S0,0.1,0,0.3V11c0,0.1,0,0.2,0.1,0.2c0.1,0.1,0.1,0.1,0.2,0.1h11.5
			c0.2,0,0.3-0.1,0.3-0.3C12.1,10.8,12,10.7,11.8,10.7"/>
	</g>
</g>
</svg>
