<?xml version="1.0" encoding="utf-8"?>
<!-- Generator: Adobe Illustrator 21.1.0, SVG Export Plug-In . SVG Version: 6.00 Build 0)  -->
<svg version="1.1" id="Layer_1" xmlns="http://www.w3.org/2000/svg" xmlns:xlink="http://www.w3.org/1999/xlink" x="0px" y="0px"
	 viewBox="0 0 10.8 8.9" style="enable-background:new 0 0 10.8 8.9;" xml:space="preserve">
<title>tutoriel</title>
<g id="Layer_2">
	<g id="Layer_1-2">
		<path d="M0,0.1v0.5c0,0.1,0.1,0.1,0.1,0.1h0.4v0.3H0.1C0.1,1.1,0,1.1,0,1.2c0,0,0,0,0,0v0.5c0,0.1,0.1,0.1,0.1,0.1h1V7h-1
			C0.1,7,0,7.1,0,7.1v0.5c0,0.1,0.1,0.1,0.1,0.1h0.4v0.3H0.1C0.1,8.1,0,8.1,0,8.2v0.5c0,0.1,0.1,0.1,0.1,0.1c0,0,0,0,0,0h10.5
			c0.1,0,0.1-0.1,0.1-0.1c0,0,0,0,0,0V8.2c0-0.1-0.1-0.1-0.1-0.1c0,0,0,0,0,0h-0.4V7.8h0.4c0.1,0,0.1-0.1,0.1-0.1l0,0V7.1
			c0-0.1-0.1-0.1-0.1-0.1H9.5V1.9h1.2c0.1,0,0.1-0.1,0.1-0.1c0,0,0,0,0,0V1.2c0-0.1-0.1-0.1-0.1-0.1l0,0h-0.4V0.8h0.4
			c0.1,0,0.1-0.1,0.1-0.1c0,0,0,0,0,0V0.1c0-0.1-0.1-0.1-0.1-0.1c0,0,0,0,0,0H0.1C0.1,0,0,0.1,0,0.1 M0.3,0.3h10.3v0.2h-0.4
			c-0.1,0-0.1,0.1-0.1,0.1v0.6c0,0.1,0.1,0.1,0.1,0.1l0,0h0.4v0.2H0.3V1.4h0.4c0.1,0,0.1-0.1,0.1-0.1V0.6c0-0.1-0.1-0.1-0.1-0.1H0.3
			V0.3z M9.3,6.9H8.7V1.9h0.6L9.3,6.9z M10.6,7.5h-0.4c-0.1,0-0.1,0.1-0.1,0.1l0,0v0.6c0,0.1,0.1,0.1,0.1,0.1c0,0,0,0,0,0h0.4v0.2
			H0.3V8.4h0.4c0.1,0,0.1-0.1,0.1-0.1l0,0V7.6c0-0.1-0.1-0.1-0.1-0.1H0.3V7.3h10.3L10.6,7.5z M1.5,1.9h0.6v5.1H1.5V1.9z M2.5,1.9h6
			V7h-6L2.5,1.9z"/>
		<path d="M6.6,1.4h1c0.1,0,0.1-0.1,0.1-0.1V0.6c0-0.1-0.1-0.1-0.1-0.1h-1c-0.1,0-0.1,0.1-0.1,0.1v0.6C6.5,1.3,6.6,1.4,6.6,1.4
			 M6.8,0.8h0.8v0.3H6.8V0.8z"/>
		<path d="M4.9,1.4h1C5.9,1.4,6,1.3,6,1.2V0.6c0-0.1,0-0.1-0.1-0.1h-1c-0.1,0-0.1,0.1-0.1,0.1v0.6C4.8,1.3,4.8,1.4,4.9,1.4 M5,0.8
			h0.8v0.3H5V0.8z"/>
		<path d="M8.4,1.4h1c0.1,0,0.1-0.1,0.1-0.1c0,0,0,0,0,0V0.6c0-0.1-0.1-0.1-0.1-0.1h-1c-0.1,0-0.1,0.1-0.1,0.1c0,0,0,0,0,0v0.6
			C8.3,1.3,8.3,1.4,8.4,1.4L8.4,1.4 M8.5,0.8h0.8v0.3H8.5V0.8z"/>
		<path d="M1.3,1.4h1c0.1,0,0.1-0.1,0.1-0.1c0,0,0,0,0,0V0.6c0-0.1-0.1-0.1-0.1-0.1h-1c-0.1,0-0.1,0.1-0.1,0.1v0.6
			C1.2,1.3,1.3,1.4,1.3,1.4 M1.5,0.8h0.8v0.3H1.5V0.8z"/>
		<path d="M3.1,1.4h1c0.1,0,0.1-0.1,0.1-0.1V0.6c0-0.1-0.1-0.1-0.1-0.1h-1C3,0.5,2.9,0.6,2.9,0.6v0v0.6C2.9,1.3,3,1.4,3.1,1.4
			L3.1,1.4 M3.2,0.8h0.8v0.3H3.2V0.8z"/>
		<path d="M2.3,7.5h-1c-0.1,0-0.1,0.1-0.1,0.1v0.6c0,0.1,0.1,0.1,0.1,0.1c0,0,0,0,0,0h1c0.1,0,0.1-0.1,0.1-0.1l0,0V7.6
			C2.5,7.6,2.4,7.5,2.3,7.5 M2.2,8.1H1.5V7.8h0.8L2.2,8.1z"/>
		<path d="M5.9,7.5h-1c-0.1,0-0.1,0.1-0.1,0.1v0.6c0,0.1,0.1,0.1,0.1,0.1l0,0h1C6,8.3,6,8.3,6,8.2V7.6C6,7.6,5.9,7.5,5.9,7.5
			 M5.7,8.1H5V7.8h0.8L5.7,8.1z"/>
		<path d="M8.2,7.6v0.6c0,0.1,0.1,0.1,0.1,0.1c0,0,0,0,0,0h1c0.1,0,0.1-0.1,0.1-0.1c0,0,0,0,0,0V7.6c0-0.1-0.1-0.1-0.1-0.1l0,0h-1
			C8.3,7.5,8.2,7.6,8.2,7.6L8.2,7.6 M9.2,8.1H8.5V7.8h0.8L9.2,8.1z"/>
		<path d="M4.1,7.5h-1C3,7.5,2.9,7.6,2.9,7.6v0.6c0,0.1,0.1,0.1,0.1,0.1c0,0,0,0,0,0h1c0.1,0,0.1-0.1,0.1-0.1l0,0V7.6
			C4.2,7.6,4.2,7.5,4.1,7.5 M3.9,8.1H3.2V7.8h0.8L3.9,8.1z"/>
		<path d="M7.6,7.5h-1c-0.1,0-0.1,0.1-0.1,0.1v0.6c0,0.1,0.1,0.1,0.1,0.1l0,0h1c0.1,0,0.1-0.1,0.1-0.1l0,0V7.6
			C7.8,7.6,7.7,7.5,7.6,7.5 M7.5,8.1H6.8V7.8h0.8L7.5,8.1z"/>
		<path d="M7.3,4.2l-2.9-2c0,0-0.1,0-0.1,0c0,0-0.1,0.1-0.1,0.1v4c0,0,0,0.1,0.1,0.1h0.1h0.1l2.9-2C7.4,4.4,7.4,4.3,7.3,4.2
			C7.4,4.2,7.3,4.2,7.3,4.2 M4.5,6V2.6L7,4.3L4.5,6z"/>
	</g>
</g>
</svg>
