<?xml version="1.0" encoding="utf-8"?>
<!-- Generator: Adobe Illustrator 21.1.0, SVG Export Plug-In . SVG Version: 6.00 Build 0)  -->
<svg version="1.1" id="Layer_1" xmlns="http://www.w3.org/2000/svg" xmlns:xlink="http://www.w3.org/1999/xlink" x="0px" y="0px"
	 viewBox="0 0 11.9 8.1" style="enable-background:new 0 0 11.9 8.1;" xml:space="preserve">
<title>wallet</title>
<g id="Layer_2">
	<g id="Layer_1-2">
		<path d="M11.7,2.9l-1.4-0.3V0.2c0-0.1-0.1-0.2-0.2-0.2H0.2C0.1,0,0,0.1,0,0.2v5.3c0,0.1,0.1,0.2,0.2,0.2h0.9l0,0c0,0,0,0.1,0,0.2
			C1.1,5.9,1.1,6,1.2,6h0.1l9.2,2.1l0,0c0.1,0,0.2-0.1,0.2-0.2l0.9-4l0.2-0.8c0,0,0-0.1,0-0.2C11.8,2.9,11.8,2.9,11.7,2.9 M10.3,4.4
			L10.3,4.4L10.3,4.4z M6.5,6c0.3,0,0.6-0.1,0.8-0.2l0,0H10L9.9,6.2H9.8c-0.4,0-0.8,0.2-1,0.6c0,0.1-0.1,0.1-0.1,0.2l-5-1.2h1.9
			l0.1,0.1h0.1c0.1,0,0.2,0.1,0.3,0.1C6.3,6,6.4,6,6.5,6 M6.3,5.7h0.5C6.6,5.7,6.4,5.7,6.3,5.7 M0.4,0.4h9.5v4.9H0.4V0.4z M10.4,7.7
			l-8.5-2h1.3c0,0,0,0.1,0.1,0.1l5.6,1.3l0,0c0,0,0.1,0,0.1-0.1c0,0,0,0,0,0C9,6.6,9.4,6.3,9.8,6.3H10c0,0,0.1,0,0.1-0.1
			c0,0,0,0,0,0l0.1-0.6l0,0c0,0,0.1-0.1,0.1-0.1V5.3l0.2-0.9c0,0,0-0.1-0.1-0.1c0,0,0,0,0,0l-0.1-0.1V3l1.1,0.3L10.4,7.7z"/>
		<path d="M9.1,1.7c-0.5,0-0.9-0.4-0.9-0.9c0-0.1,0-0.1-0.1-0.1l0,0H2.2c-0.1,0-0.1,0-0.1,0.1c0,0.5-0.4,0.9-0.9,0.9
			c-0.1,0-0.1,0-0.1,0.1l0,0v2.1C1.1,4,1.1,4,1.2,4c0.5,0,0.9,0.5,0.9,1c0,0.1,0,0.1,0.1,0.1h5.9c0.1,0,0.1,0,0.1-0.1
			c0-0.5,0.4-1,0.9-1c0.1,0,0.1,0,0.1-0.1v0V1.8C9.2,1.7,9.2,1.7,9.1,1.7L9.1,1.7 M9,3.8c-0.5,0.1-0.9,0.5-1,1H2.3
			c-0.1-0.5-0.5-0.9-1-1V1.9c0.5-0.1,0.9-0.5,1-1H8c0.1,0.5,0.5,0.9,1,1V3.8z"/>
		<path d="M5.2,1.2C4.3,1.2,3.6,2,3.6,2.9c0,0.9,0.7,1.6,1.6,1.6s1.6-0.7,1.6-1.6C6.8,2,6.1,1.2,5.2,1.2 M5.2,4.2
			c-0.7,0-1.3-0.6-1.3-1.4c0-0.8,0.6-1.4,1.3-1.4c0.8,0,1.4,0.6,1.3,1.4c0,0,0,0,0,0C6.6,3.6,6,4.2,5.2,4.2C5.2,4.2,5.2,4.2,5.2,4.2
			"/>
	</g>
</g>
</svg>
