<svg xmlns="http://www.w3.org/2000/svg" viewBox="0 0 13.93 13.93"><defs><style>.cls-1{fill:#fff;}</style></defs><title>search_icon</title><g id="Layer_2" data-name="Layer 2"><g id="Layer_1-2" data-name="Layer 1"><path class="cls-1" d="M9.64,5.89a3.61,3.61,0,0,0-1.1-2.65,3.61,3.61,0,0,0-2.65-1.1,3.61,3.61,0,0,0-2.65,1.1,3.61,3.61,0,0,0-1.1,2.65,3.61,3.61,0,0,0,1.1,2.65,3.61,3.61,0,0,0,2.65,1.1,3.61,3.61,0,0,0,2.65-1.1A3.61,3.61,0,0,0,9.64,5.89Zm4.29,7a1.09,1.09,0,0,1-1.07,1.07,1,1,0,0,1-.75-.32L9.23,10.75a5.73,5.73,0,0,1-3.34,1,5.79,5.79,0,0,1-2.29-.46A5.77,5.77,0,0,1,.46,8.18a5.87,5.87,0,0,1,0-4.58A5.77,5.77,0,0,1,3.6.46a5.87,5.87,0,0,1,4.58,0A5.77,5.77,0,0,1,11.32,3.6a5.79,5.79,0,0,1,.46,2.29,5.73,5.73,0,0,1-1,3.34l2.87,2.87A1,1,0,0,1,13.93,12.86Z"/></g></g></svg>