<svg height="512" viewBox="0 0 64 64" width="512" xmlns="http://www.w3.org/2000/svg"><g id="seller"><path d="m25 14a.977.977 0 0 1 .55-.89l4-2a.972.972 0 0 1 .69-.08l8 2a1 1 0 0 1 .76.97v.59l1-1v-.59a5 5 0 0 0 -5-5h-6a5 5 0 0 0 -5 5v.59l1 1z"/><path d="m39 18h1v1h-1z"/><path d="m24 18h1v1h-1z"/><path d="m25.23 38.63-8.7-10.63h-3.71l6.02 9.46a.949.949 0 0 1 .16.54v2h2a1 1 0 0 1 1 1v15h20v-15a1 1 0 0 1 1-1h2v-2c0-.36 0-.51 6.16-10h-3.69l-8.7 10.63-1.54-1.26 4.29-5.25a6.55 6.55 0 0 0 -2.09-1.01l-4.38 6.13 1.94 11.6a1.011 1.011 0 0 1 -.28.87l-4 4a1.014 1.014 0 0 1 -1.42 0l-4-4a1.011 1.011 0 0 1 -.28-.87l1.94-11.6-4.38-6.13a6.55 6.55 0 0 0 -2.09 1.01l4.29 5.25z"/><path d="m36.27 30.14-3.56 3.57a1.008 1.008 0 0 1 -1.42 0l-3.56-3.57-1.13.38 3.91 5.48h2.98l3.91-5.48z"/><path d="m53 18a7 7 0 1 0 -7-7 7.008 7.008 0 0 0 7 7zm-3.293-8.707 2.293 2.293 4.293-4.293 1.414 1.414-5 5a1 1 0 0 1 -1.414 0l-3-3z"/><path d="m30.85 38-.34 2h2.98l-.34-2z"/><path d="m29.07 48.66 2.93 2.93 2.93-2.93-1.11-6.66h-3.64z"/><path d="m59.83 24h-8.83a3.014 3.014 0 0 0 -2.83 2h8.83a3.014 3.014 0 0 0 2.83-2z"/><path d="m13 24h-8.83a3.014 3.014 0 0 0 2.83 2h8.83a3.014 3.014 0 0 0 -2.83-2z"/><path d="m4 58h56v2h-56z"/><path d="m20 42h-4v3a1 1 0 0 1 -1 1h-4a1 1 0 0 1 -1-1v-3h-4v14h14z"/><path d="m12 42h2v2h-2z"/><path d="m50 42h2v2h-2z"/><path d="m44 42v14h14v-14h-4v3a1 1 0 0 1 -1 1h-4a1 1 0 0 1 -1-1v-3z"/><path d="m37 20v-5.22l-6.88-1.72-3.12 1.56v5.38a5 5 0 0 0 10 0z"/><path d="m5 18h12a1 1 0 0 0 1-1v-12a1 1 0 0 0 -1-1h-12a1 1 0 0 0 -1 1v12a1 1 0 0 0 1 1zm5-12h6v2h-6zm-4 0h2v2h-2zm0 4h10v2h-10zm0 4h10v2h-10z"/><path d="m30.54 26.84-.47 2.82 1.93 1.93 1.93-1.93-.47-2.82a6.741 6.741 0 0 1 -2.92 0z"/></g></svg>